<svg width="31" height="31" viewBox="0 0 31 31" fill="none" xmlns="http://www.w3.org/2000/svg">
<g clip-path="url(#clip0_354_794)">
<path d="M15.5 31C6.93003 31 0 24.0171 0 15.5C0 6.93003 6.93003 0 15.5 0C24.0171 0 31 6.93003 31 15.5C31 24.0171 24.0171 31 15.5 31ZM15.5 0.846416C7.40614 0.846416 0.846416 7.40614 0.846416 15.5C0.846416 23.5939 7.40614 30.1536 15.5 30.1536C23.5939 30.1536 30.1536 23.5939 30.1536 15.5C30.1536 7.40614 23.5939 0.846416 15.5 0.846416Z" fill="#414041"/>
<path d="M26.6621 25.657L15.0768 15.7116V0.423218H15.9232V15.2884L27.1911 25.0222L26.6621 25.657Z" fill="#414041"/>
<path d="M30.5768 15.0768H15.5V15.9232H30.5768V15.0768Z" fill="#414041"/>
</g>
<defs>
<clipPath id="clip0_354_794">
<rect width="31" height="31" fill="white"/>
</clipPath>
</defs>
</svg>
