<svg width="28" height="28" viewBox="0 0 28 28" fill="none" xmlns="http://www.w3.org/2000/svg">
<g clip-path="url(#clip0_354_783)">
<path d="M3.73018 8.55686C3.54131 8.55686 3.35244 8.74701 3.35244 8.93716C3.35244 9.12732 3.54131 9.31747 3.73018 9.31747H8.82967C8.87689 9.31747 8.92411 9.31747 8.97133 9.26993C9.01854 9.26993 9.06576 9.22239 9.06576 9.22239C9.11298 9.17485 9.11298 9.12732 9.1602 9.07978C9.1602 9.03224 9.20741 8.9847 9.20741 8.93716V3.94565C9.20741 3.7555 9.01854 3.56535 8.82967 3.56535C8.6408 3.56535 8.45193 3.7555 8.45193 3.94565V8.03394L0.66104 0.0950591C0.472169 -0.0475555 0.236082 -0.0475555 0.0944292 0.0950591C-0.0472235 0.237674 -0.0472235 0.475365 0.0944292 0.617979L7.93254 8.55686H3.73018Z" fill="#272525"/>
<path d="M14.0708 9.31744C11.4266 9.31744 9.25464 11.5042 9.25464 14.1663C9.25464 16.8285 11.4266 19.0152 14.0708 19.0152C16.715 19.0152 18.887 16.8285 18.887 14.1663C18.887 11.5042 16.715 9.31744 14.0708 9.31744ZM14.0708 18.2546C11.8516 18.2546 10.0101 16.4482 10.0101 14.1663C10.0101 11.932 11.8044 10.0781 14.0708 10.0781C16.2901 10.0781 18.1315 11.8845 18.1315 14.1663C18.1315 16.4006 16.2901 18.2546 14.0708 18.2546Z" fill="#272525"/>
<path d="M18.6037 9.07979C18.6037 9.12733 18.6509 9.17486 18.6509 9.17486C18.6981 9.2224 18.7454 9.2224 18.7926 9.26994C18.8398 9.26994 18.887 9.31748 18.9342 9.31748H23.8921C24.0809 9.31748 24.2698 9.12732 24.2698 8.93717C24.2698 8.74702 24.1282 8.55687 23.8921 8.55687H19.8314L27.7167 0.665526C27.8583 0.522911 27.8583 0.28522 27.7167 0.142605C27.575 -9.12018e-06 27.339 -9.12018e-06 27.1973 0.142605L19.312 8.03395V3.80305C19.312 3.61289 19.1231 3.42274 18.9342 3.42274C18.7454 3.42274 18.5565 3.61289 18.5565 3.80305V8.93717C18.5565 8.98471 18.5565 9.03225 18.6037 9.07979Z" fill="#272525"/>
<path d="M27.8583 27.3344L20.0202 19.3956H24.2226C24.4115 19.3956 24.6003 19.2054 24.6003 19.0153C24.6003 18.8251 24.4115 18.6349 24.2226 18.6349H19.1231C19.0759 18.6349 19.0287 18.6349 18.9814 18.6825C18.9342 18.6825 18.887 18.73 18.887 18.73C18.8398 18.7776 18.8398 18.8251 18.7926 18.8726C18.7926 18.9202 18.7454 18.9677 18.7454 19.0153V24.0068C18.7454 24.1969 18.9342 24.3871 19.1231 24.3871C19.312 24.3871 19.5008 24.1969 19.5008 24.0068V19.966L27.339 27.9049C27.4334 28 27.5278 28 27.6223 28C27.7167 28 27.8111 27.9524 27.9056 27.9049C28 27.7147 28 27.4771 27.8583 27.3344Z" fill="#272525"/>
<path d="M9.39629 19.0628C9.39629 19.0153 9.39629 18.9677 9.34908 18.9202C9.34908 18.8726 9.30186 18.8251 9.30186 18.8251C9.25464 18.7776 9.20742 18.7776 9.16021 18.73C9.11299 18.73 9.06577 18.6825 9.01855 18.6825H4.06071C3.87184 18.6825 3.68297 18.8726 3.68297 19.0628C3.68297 19.253 3.87184 19.4431 4.06071 19.4431H8.12142L0.236092 27.3344C0.0944391 27.4771 0.0944391 27.7148 0.236092 27.8574C0.330527 27.9524 0.424962 27.9524 0.519397 27.9524C0.613832 27.9524 0.708267 27.9049 0.802702 27.8574L8.64081 19.966V24.1969C8.64081 24.3871 8.82968 24.5772 9.01855 24.5772C9.20742 24.5772 9.39629 24.3871 9.39629 24.1969V19.0628Z" fill="#272525"/>
</g>
<defs>
<clipPath id="clip0_354_783">
<rect width="28" height="28" fill="white"/>
</clipPath>
</defs>
</svg>
