<svg width="30" height="29" viewBox="0 0 30 29" fill="none" xmlns="http://www.w3.org/2000/svg">
<g clip-path="url(#clip0_354_767)">
<path d="M29.5904 28.2055H15.4096L15.256 28.4538C15.2048 28.5531 15.0512 28.6028 14.9488 28.6028C14.7952 28.6028 14.6928 28.5531 14.5904 28.4538L14.4369 28.2055H0.409556C0.204778 28.2055 0 28.4041 0 28.6028C0 28.8014 0.204778 29 0.409556 29H29.5904C29.7952 29 30 28.8014 30 28.6028C30 28.4041 29.8464 28.2055 29.5904 28.2055Z" fill="#272525"/>
<path d="M7.52558 17.3305H7.93514V0.39726C7.93514 0.19863 7.73036 0 7.52558 0C7.32081 0 7.11603 0.19863 7.11603 0.39726V17.7277C7.11603 17.4795 7.32081 17.3305 7.52558 17.3305Z" fill="#272525"/>
<path d="M22.7816 18.0754C22.8328 18.0257 22.8328 17.9264 22.8328 17.8271V17.6781C22.8328 17.8767 22.628 18.0754 22.4232 18.0754H21.7577L16.0751 25.9709H16.2799C16.4846 25.9709 16.6894 26.1695 16.6894 26.3682C16.6894 26.5668 16.4846 26.7654 16.2799 26.7654H15.5119L14.9488 27.56L14.3345 26.7158H13.5665C13.3618 26.7158 13.157 26.5171 13.157 26.3185C13.157 26.1199 13.3618 25.9213 13.5665 25.9213H13.7713L8.19111 18.0754H7.52558C7.32081 18.0754 7.11603 17.8767 7.11603 17.6781V17.8767C7.11603 17.976 7.11603 18.0257 7.16722 18.125L14.3857 28.2552H15.3583L22.7816 18.0754Z" fill="#272525"/>
<path d="M22.884 17.6781V0.39726C22.884 0.19863 22.6792 0 22.4744 0C22.2696 0 22.0648 0.19863 22.0648 0.39726V17.3305H22.4744C22.6792 17.3305 22.884 17.4795 22.884 17.6781Z" fill="#272525"/>
<path d="M14.8976 28.6028C14.9488 28.6028 14.9488 28.6028 14.8976 28.6028C15.0512 28.6028 15.1536 28.5531 15.256 28.4538L15.4096 28.2055H14.4369L14.5904 28.4538C14.6416 28.5531 14.7952 28.6028 14.8976 28.6028Z" fill="#272525"/>
<path d="M8.19112 18.0754H21.8089L22.0648 17.7278V17.3305H7.93515V17.7278L8.19112 18.0754Z" fill="#272525"/>
<path d="M7.52558 18.0753H8.19111L7.93514 17.7277V17.2808H7.52558C7.32081 17.2808 7.11603 17.4795 7.11603 17.6781C7.11603 17.9264 7.32081 18.0753 7.52558 18.0753Z" fill="#272525"/>
<path d="M21.8089 18.0753H22.4744C22.6792 18.0753 22.884 17.8767 22.884 17.6781C22.884 17.4795 22.6792 17.2808 22.4744 17.2808H22.0648V17.7277L21.8089 18.0753Z" fill="#272525"/>
<path d="M14.3345 26.7157H15.5119L16.0751 25.9709H13.7713L14.3345 26.7157Z" fill="#272525"/>
<path d="M13.6177 25.9709C13.413 25.9709 13.2082 26.1695 13.2082 26.3681C13.2082 26.5668 13.413 26.7654 13.6177 26.7654H14.3345L13.7713 25.9709H13.6177Z" fill="#272525"/>
<path d="M16.2799 26.7157C16.4846 26.7157 16.6894 26.5171 16.6894 26.3185C16.6894 26.1198 16.4846 25.9212 16.2799 25.9212H16.0751L15.5119 26.7157H16.2799Z" fill="#272525"/>
<path d="M11.2628 14.5C11.4676 14.5 11.6724 14.3014 11.6724 14.1027V3.42637C11.6724 3.22774 11.4676 3.02911 11.2628 3.02911C11.058 3.02911 10.8532 3.22774 10.8532 3.42637V14.1027C10.8532 14.3014 11.058 14.5 11.2628 14.5Z" fill="#272525"/>
<path d="M18.8396 14.5C19.0444 14.5 19.2491 14.3014 19.2491 14.1027V3.42637C19.2491 3.22774 19.0444 3.02911 18.8396 3.02911C18.6348 3.02911 18.43 3.22774 18.43 3.42637V14.1027C18.43 14.3014 18.6348 14.5 18.8396 14.5Z" fill="#272525"/>
<path d="M15 12.9606C15.2048 12.9606 15.4096 12.762 15.4096 12.5634V1.48973C15.4096 1.2911 15.2048 1.09247 15 1.09247C14.7952 1.09247 14.5905 1.2911 14.5905 1.48973V12.5634C14.5905 12.762 14.744 12.9606 15 12.9606Z" fill="#272525"/>
</g>
<defs>
<clipPath id="clip0_354_767">
<rect width="30" height="29" fill="white"/>
</clipPath>
</defs>
</svg>
