<svg width="33" height="30" viewBox="0 0 33 30" fill="none" xmlns="http://www.w3.org/2000/svg">
<g clip-path="url(#clip0_354_758)">
<path d="M32.5894 30H10.1104C9.90512 30 9.69983 29.7959 9.69983 29.5918V18.8776C9.69983 18.6735 9.90512 18.4694 10.1104 18.4694C10.3157 18.4694 10.521 18.6735 10.521 18.8776V29.2347H32.1788V0.816327H10.521V11.7857C10.521 11.9898 10.3157 12.1939 10.1104 12.1939C9.90512 12.1939 9.69983 11.9898 9.69983 11.7857V0.408163C9.69983 0.204082 9.90512 0 10.1104 0H32.5894C32.7947 0 33 0.204082 33 0.408163V29.5918C33 29.8469 32.846 30 32.5894 30Z" fill="#272525"/>
<path d="M18.4246 15.7143H0.923789C0.718502 15.7143 0.513214 15.5612 0.513214 15.3061C0.513214 15.051 0.718502 14.8979 0.923789 14.8979H18.4246C18.6299 14.8979 18.8351 15.102 18.8351 15.3061C18.8351 15.5102 18.6299 15.7143 18.4246 15.7143Z" fill="#272525"/>
<path d="M4.6703 18.7245C4.56765 18.7245 4.51633 18.7245 4.41369 18.6735L0.153966 15.6633C0.0513219 15.5612 0 15.4592 0 15.3061C0 15.1531 0.0513219 15.051 0.153966 15L4.41369 11.9898C4.61897 11.8368 4.87558 11.8878 4.97823 12.0919C5.13219 12.2959 5.08087 12.551 4.87558 12.6531L1.12908 15.3061L4.92691 17.9592C5.13219 18.1123 5.13219 18.3674 5.02955 18.5204C4.92691 18.6735 4.77294 18.7245 4.6703 18.7245Z" fill="#272525"/>
</g>
<defs>
<clipPath id="clip0_354_758">
<rect width="33" height="30" fill="white"/>
</clipPath>
</defs>
</svg>
