<?xml version="1.0" standalone="no"?>
<!DOCTYPE svg PUBLIC "-//W3C//DTD SVG 20010904//EN"
 "http://www.w3.org/TR/2001/REC-SVG-20010904/DTD/svg10.dtd">
<svg version="1.0" xmlns="http://www.w3.org/2000/svg"
 width="293.000000pt" height="240.000000pt" viewBox="0 0 293.000000 240.000000"
 preserveAspectRatio="xMidYMid meet">

<g transform="translate(0.000000,240.000000) scale(0.100000,-0.100000)"
fill="#000000" stroke="none">
<path d="M194 2376 c-3 -8 -4 -23 -2 -33 3 -17 24 -18 319 -21 339 -2 350 -1
334 48 -6 20 -13 20 -326 20 -269 0 -321 -2 -325 -14z"/>
<path d="M12 2178 c-9 -9 -12 -261 -12 -1074 0 -953 2 -1064 16 -1078 14 -14
159 -16 1444 -16 1285 0 1430 2 1444 16 14 14 16 125 16 1078 0 813 -3 1065
-12 1074 -17 17 -2879 17 -2896 0z m2828 -1073 l0 -1015 -1380 0 -1380 0 0
1015 0 1015 1380 0 1380 0 0 -1015z"/>
<path d="M2144 1957 c-2 -7 -3 -78 -2 -157 l3 -145 280 0 280 0 0 155 0 155
-278 3 c-222 2 -279 0 -283 -11z m494 -149 l3 -88 -216 0 -215 0 0 90 0 90
213 -2 212 -3 3 -87z"/>
<path d="M1175 1751 c-223 -61 -398 -204 -495 -405 -59 -123 -80 -213 -80
-344 0 -423 340 -762 765 -762 426 0 765 339 765 764 0 336 -206 623 -525 732
-69 24 -99 28 -220 31 -114 2 -153 -1 -210 -16z m400 -86 c139 -46 242 -119
334 -233 99 -124 145 -256 145 -422 1 -129 -13 -188 -71 -310 -38 -79 -59
-108 -132 -180 -139 -139 -293 -204 -486 -204 -121 0 -199 19 -315 76 -68 33
-102 59 -171 128 -73 72 -94 101 -132 180 -25 52 -51 120 -58 150 -19 78 -16
250 5 330 69 254 271 446 531 506 95 22 252 12 350 -21z"/>
</g>
</svg>
