<svg width="29" height="30" viewBox="0 0 29 30" fill="none" xmlns="http://www.w3.org/2000/svg">
<g clip-path="url(#clip0_354_800)">
<path d="M7.1228 30H0.508763C0.305254 30 0.101746 29.7917 0.101746 29.5834V14.5834C0.101746 14.375 0.305254 14.1667 0.508763 14.1667H7.1228C7.32631 14.1667 7.52982 14.375 7.52982 14.5834V29.5834C7.52982 29.7917 7.32631 30 7.1228 30ZM0.864904 29.1667H6.71578V14.9479H0.864904V29.1667Z" fill="#272525"/>
<path d="M18.0105 30H11.3965C11.193 30 10.9895 29.7916 10.9895 29.5833V7.49998C10.9895 7.29165 11.193 7.08331 11.3965 7.08331H18.0105C18.214 7.08331 18.4175 7.29165 18.4175 7.49998V29.5833C18.4175 29.7916 18.214 30 18.0105 30ZM11.7526 29.1666H17.6035V7.91665H11.7526V29.1666Z" fill="#272525"/>
<path d="M28.593 30H21.9789C21.7754 30 21.5719 29.7917 21.5719 29.5833V0.416667C21.5719 0.208333 21.7754 0 21.9789 0H28.593C28.8474 0 29 0.208333 29 0.416667V29.5833C29 29.7917 28.8474 30 28.593 30ZM22.386 29.1667H28.2368V0.833333H22.386V29.1667Z" fill="#272525"/>
<path d="M10.5824 0.62498C10.5824 0.833313 10.786 1.04165 10.9895 1.04165H13.3807L0.152618 11.0937C-1.35172e-05 11.1979 -0.0508907 11.4583 0.101741 11.6666C0.254372 11.875 0.508758 11.875 0.66139 11.7708L14.1438 1.5104V4.27081C14.1438 4.47915 14.3474 4.68748 14.5509 4.68748C14.7544 4.68748 14.9579 4.47915 14.9579 4.27081V0.62498C14.9579 0.416646 14.7544 0.208313 14.5509 0.208313H10.9895C10.786 0.208313 10.5824 0.416646 10.5824 0.62498Z" fill="#272525"/>
</g>
<defs>
<clipPath id="clip0_354_800">
<rect width="29" height="30" fill="white"/>
</clipPath>
</defs>
</svg>
