<?xml version="1.0" standalone="no"?>
<!DOCTYPE svg PUBLIC "-//W3C//DTD SVG 20010904//EN"
 "http://www.w3.org/TR/2001/REC-SVG-20010904/DTD/svg10.dtd">
<svg version="1.0" xmlns="http://www.w3.org/2000/svg"
 width="218.000000pt" height="290.000000pt" viewBox="0 0 218.000000 290.000000"
 preserveAspectRatio="xMidYMid meet">

<g transform="translate(0.000000,290.000000) scale(0.100000,-0.100000)"
fill="#000000" stroke="none">
<path d="M744 2876 c-447 -102 -681 -588 -484 -1001 67 -140 212 -280 348
-334 31 -13 44 -31 21 -31 -24 0 -184 -82 -243 -124 -179 -128 -312 -327 -363
-544 -20 -86 -32 -777 -14 -811 l12 -21 628 0 c671 0 658 -1 649 47 -3 17 -35
18 -611 21 l-607 2 0 324 c0 351 6 413 55 541 53 141 177 300 297 383 396 272
920 165 1182 -241 57 -88 61 -92 90 -81 59 23 -73 225 -227 349 -78 62 -206
132 -285 156 l-43 12 58 31 c165 88 274 207 339 365 88 219 64 460 -67 655
-91 137 -218 232 -377 283 -96 31 -265 40 -358 19z m311 -83 c102 -25 192 -79
281 -168 127 -126 184 -262 184 -440 0 -177 -57 -314 -184 -441 -65 -65 -98
-89 -166 -122 -114 -54 -173 -66 -311 -60 -90 4 -128 10 -181 31 -185 71 -324
216 -385 401 -37 116 -37 266 0 382 105 321 431 499 762 417z"/>
<path d="M1752 778 c-8 -8 -12 -62 -12 -175 l0 -163 -166 -2 c-146 -3 -168 -5
-178 -20 -8 -13 -8 -23 0 -35 10 -16 32 -18 178 -21 l166 -2 0 -163 c0 -168 4
-187 42 -187 31 0 38 35 38 194 l0 156 166 2 c146 3 168 5 178 21 8 12 8 22 0
35 -10 15 -32 17 -178 20 l-166 2 0 156 c0 88 -4 164 -10 175 -12 21 -40 25
-58 7z"/>
</g>
</svg>
