<?xml version="1.0" standalone="no"?><svg xmlns:xlink="http://www.w3.org/1999/xlink" xmlns="http://www.w3.org/2000/svg" viewBox="0 0 1280 782.2205000282547" preserveAspectRatio="xMaxYMax slice"><g transform="scale(1.033316380486466)"><rect x="0" y="0" width="1307.5454545454545" height="757" fill="#000000"/><rect x="0" y="0" width="68.82" height="68.82" fill="#b1b12b"/><g transform="translate(0,0) scale(3.441) rotate(0)"><path d="M10 0H20L0 20V10L10 0Z" fill="#3d3d0f"/><path d="M20 10V20H10L20 10Z" fill="#3d3d0f"/></g><rect x="68.82" y="0" width="68.82" height="68.82" fill="#0d0d03"/><g transform="translate(68.82,0) scale(3.441) rotate(0)"><path d="M10 0H20L0 20V10L10 0Z" fill="#acac2a"/><path d="M20 10V20H10L20 10Z" fill="#acac2a"/></g><rect x="137.64" y="0" width="68.82" height="68.82" fill="#030301"/><g transform="translate(137.64,0) scale(3.441) rotate(0)"><path d="M10 0H20L0 20V10L10 0Z" fill="#1a1a06"/><path d="M20 10V20H10L20 10Z" fill="#1a1a06"/></g><rect x="206.45" y="0" width="68.82" height="68.82" fill="#626218"/><g transform="translate(206.45,0) scale(3.441) rotate(0)"><path d="M10 0H20L0 20V10L10 0Z" fill="#37370d"/><path d="M20 10V20H10L20 10Z" fill="#37370d"/></g><rect x="275.27" y="0" width="68.82" height="68.82" fill="#a5a528"/><g transform="translate(275.27,0) scale(3.441) rotate(0)"><path d="M10 0H20L0 20V10L10 0Z" fill="#888821"/><path d="M20 10V20H10L20 10Z" fill="#888821"/></g><rect x="344.09" y="0" width="68.82" height="68.82" fill="#e3e338"/><g transform="translate(344.09,0) scale(3.441) rotate(0)"><path d="M10 0H20L0 20V10L10 0Z" fill="#8e8e23"/><path d="M20 10V20H10L20 10Z" fill="#8e8e23"/></g><rect x="412.91" y="0" width="68.82" height="68.82" fill="#8d8d22"/><g transform="translate(412.91,0) scale(3.441) rotate(0)"><path d="M10 0H20L0 20V10L10 0Z" fill="#525214"/><path d="M20 10V20H10L20 10Z" fill="#525214"/></g><rect x="481.73" y="0" width="68.82" height="68.82" fill="#9d9d26"/><g transform="translate(481.73,0) scale(3.441) rotate(0)"><path d="M10 0H20L0 20V10L10 0Z" fill="#4c4c12"/><path d="M20 10V20H10L20 10Z" fill="#4c4c12"/></g><rect x="550.55" y="0" width="68.82" height="68.82" fill="#989825"/><g transform="translate(550.55,0) scale(3.441) rotate(0)"><path d="M10 0H20L0 20V10L10 0Z" fill="#f8f83d"/><path d="M20 10V20H10L20 10Z" fill="#f8f83d"/></g><rect x="619.36" y="0" width="68.82" height="68.82" fill="#2e2e0b"/><g transform="translate(619.36,0) scale(3.441) rotate(0)"><path d="M10 0H20L0 20V10L10 0Z" fill="#949424"/><path d="M20 10V20H10L20 10Z" fill="#949424"/></g><rect x="688.18" y="0" width="68.82" height="68.82" fill="#1c1c07"/><g transform="translate(688.18,0) scale(3.441) rotate(0)"><path d="M10 0H20L0 20V10L10 0Z" fill="#060602"/><path d="M20 10V20H10L20 10Z" fill="#060602"/></g><rect x="757" y="0" width="68.82" height="68.82" fill="#a4a428"/><g transform="translate(757,0) scale(3.441) rotate(0)"><path d="M10 0H20L0 20V10L10 0Z" fill="#525214"/><path d="M20 10V20H10L20 10Z" fill="#525214"/></g><rect x="825.82" y="0" width="68.82" height="68.82" fill="#2b2b0a"/><g transform="translate(825.82,0) scale(3.441) rotate(0)"><path d="M10 0H20L0 20V10L10 0Z" fill="#0a0a02"/><path d="M20 10V20H10L20 10Z" fill="#0a0a02"/></g><rect x="894.64" y="0" width="68.82" height="68.82" fill="#171706"/><g transform="translate(894.64,0) scale(3.441) rotate(0)"><path d="M10 0H20L0 20V10L10 0Z" fill="#fafa3d"/><path d="M20 10V20H10L20 10Z" fill="#fafa3d"/></g><rect x="963.45" y="0" width="68.82" height="68.82" fill="#585816"/><g transform="translate(963.45,0) scale(3.441) rotate(0)"><path d="M10 0H20L0 20V10L10 0Z" fill="#efef3a"/><path d="M20 10V20H10L20 10Z" fill="#efef3a"/></g><rect x="1032.27" y="0" width="68.82" height="68.82" fill="#1b1b07"/><g transform="translate(1032.27,0) scale(3.441) rotate(0)"><path d="M10 0H20L0 20V10L10 0Z" fill="#2a2a0a"/><path d="M20 10V20H10L20 10Z" fill="#2a2a0a"/></g><rect x="1101.09" y="0" width="68.82" height="68.82" fill="#646418"/><g transform="translate(1101.09,0) scale(3.441) rotate(0)"><path d="M10 0H20L0 20V10L10 0Z" fill="#81811f"/><path d="M20 10V20H10L20 10Z" fill="#81811f"/></g><rect x="1169.91" y="0" width="68.82" height="68.82" fill="#c8c831"/><g transform="translate(1169.91,0) scale(3.441) rotate(0)"><path d="M10 0H20L0 20V10L10 0Z" fill="#ebeb39"/><path d="M20 10V20H10L20 10Z" fill="#ebeb39"/></g><rect x="1238.73" y="0" width="68.82" height="68.82" fill="#0c0c03"/><g transform="translate(1238.73,0) scale(3.441) rotate(0)"><path d="M10 0H20L0 20V10L10 0Z" fill="#3b3b0e"/><path d="M20 10V20H10L20 10Z" fill="#3b3b0e"/></g><rect x="0" y="68.82" width="68.82" height="68.82" fill="#1c1c07"/><g transform="translate(0,68.82) scale(3.441) rotate(0)"><path d="M10 0H20L0 20V10L10 0Z" fill="#5e5e17"/><path d="M20 10V20H10L20 10Z" fill="#5e5e17"/></g><rect x="68.82" y="68.82" width="68.82" height="68.82" fill="#0a0a02"/><g transform="translate(68.82,68.82) scale(3.441) rotate(0)"><path d="M10 0H20L0 20V10L10 0Z" fill="#73731c"/><path d="M20 10V20H10L20 10Z" fill="#73731c"/></g><rect x="137.64" y="68.82" width="68.82" height="68.82" fill="#cfcf33"/><g transform="translate(137.64,68.82) scale(3.441) rotate(0)"><path d="M10 0H20L0 20V10L10 0Z" fill="#5c5c16"/><path d="M20 10V20H10L20 10Z" fill="#5c5c16"/></g><rect x="206.45" y="68.82" width="68.82" height="68.82" fill="#474711"/><g transform="translate(206.45,68.82) scale(3.441) rotate(0)"><path d="M10 0H20L0 20V10L10 0Z" fill="#e0e037"/><path d="M20 10V20H10L20 10Z" fill="#e0e037"/></g><rect x="275.27" y="68.82" width="68.82" height="68.82" fill="#3b3b0e"/><g transform="translate(275.27,68.82) scale(3.441) rotate(0)"><path d="M10 0H20L0 20V10L10 0Z" fill="#e2e237"/><path d="M20 10V20H10L20 10Z" fill="#e2e237"/></g><rect x="344.09" y="68.82" width="68.82" height="68.82" fill="#c1c12f"/><g transform="translate(344.09,68.82) scale(3.441) rotate(0)"><path d="M10 0H20L0 20V10L10 0Z" fill="#c7c731"/><path d="M20 10V20H10L20 10Z" fill="#c7c731"/></g><rect x="412.91" y="68.82" width="68.82" height="68.82" fill="#535314"/><g transform="translate(412.91,68.82) scale(3.441) rotate(0)"><path d="M10 0H20L0 20V10L10 0Z" fill="#e0e037"/><path d="M20 10V20H10L20 10Z" fill="#e0e037"/></g><rect x="481.73" y="68.82" width="68.82" height="68.82" fill="#1e1e07"/><g transform="translate(481.73,68.82) scale(3.441) rotate(0)"><path d="M10 0H20L0 20V10L10 0Z" fill="#0e0e04"/><path d="M20 10V20H10L20 10Z" fill="#0e0e04"/></g><rect x="550.55" y="68.82" width="68.82" height="68.82" fill="#070702"/><g transform="translate(550.55,68.82) scale(3.441) rotate(0)"><path d="M10 0H20L0 20V10L10 0Z" fill="#71711c"/><path d="M20 10V20H10L20 10Z" fill="#71711c"/></g><rect x="619.36" y="68.82" width="68.82" height="68.82" fill="#929224"/><g transform="translate(619.36,68.82) scale(3.441) rotate(0)"><path d="M10 0H20L0 20V10L10 0Z" fill="#080802"/><path d="M20 10V20H10L20 10Z" fill="#080802"/></g><rect x="688.18" y="68.82" width="68.82" height="68.82" fill="#dada35"/><g transform="translate(688.18,68.82) scale(3.441) rotate(0)"><path d="M10 0H20L0 20V10L10 0Z" fill="#d4d434"/><path d="M20 10V20H10L20 10Z" fill="#d4d434"/></g><rect x="757" y="68.82" width="68.82" height="68.82" fill="#191906"/><g transform="translate(757,68.82) scale(3.441) rotate(0)"><path d="M10 0H20L0 20V10L10 0Z" fill="#7f7f1f"/><path d="M20 10V20H10L20 10Z" fill="#7f7f1f"/></g><rect x="825.82" y="68.82" width="68.82" height="68.82" fill="#232308"/><g transform="translate(825.82,68.82) scale(3.441) rotate(0)"><path d="M10 0H20L0 20V10L10 0Z" fill="#5c5c17"/><path d="M20 10V20H10L20 10Z" fill="#5c5c17"/></g><rect x="894.64" y="68.82" width="68.82" height="68.82" fill="#31310c"/><g transform="translate(894.64,68.82) scale(3.441) rotate(0)"><path d="M10 0H20L0 20V10L10 0Z" fill="#474711"/><path d="M20 10V20H10L20 10Z" fill="#474711"/></g><rect x="963.45" y="68.82" width="68.82" height="68.82" fill="#a2a227"/><g transform="translate(963.45,68.82) scale(3.441) rotate(0)"><path d="M10 0H20L0 20V10L10 0Z" fill="#8f8f23"/><path d="M20 10V20H10L20 10Z" fill="#8f8f23"/></g><rect x="1032.27" y="68.82" width="68.82" height="68.82" fill="#36360d"/><g transform="translate(1032.27,68.82) scale(3.441) rotate(0)"><path d="M10 0H20L0 20V10L10 0Z" fill="#c0c02f"/><path d="M20 10V20H10L20 10Z" fill="#c0c02f"/></g><rect x="1101.09" y="68.82" width="68.82" height="68.82" fill="#151505"/><g transform="translate(1101.09,68.82) scale(3.441) rotate(0)"><path d="M10 0H20L0 20V10L10 0Z" fill="#fcfc3e"/><path d="M20 10V20H10L20 10Z" fill="#fcfc3e"/></g><rect x="1169.91" y="68.82" width="68.82" height="68.82" fill="#131305"/><g transform="translate(1169.91,68.82) scale(3.441) rotate(0)"><path d="M10 0H20L0 20V10L10 0Z" fill="#e2e237"/><path d="M20 10V20H10L20 10Z" fill="#e2e237"/></g><rect x="1238.73" y="68.82" width="68.82" height="68.82" fill="#36360d"/><g transform="translate(1238.73,68.82) scale(3.441) rotate(0)"><path d="M10 0H20L0 20V10L10 0Z" fill="#6e6e1b"/><path d="M20 10V20H10L20 10Z" fill="#6e6e1b"/></g><rect x="0" y="137.64" width="68.82" height="68.82" fill="#1c1c07"/><g transform="translate(0,137.64) scale(3.441) rotate(0)"><path d="M10 0H20L0 20V10L10 0Z" fill="#888821"/><path d="M20 10V20H10L20 10Z" fill="#888821"/></g><rect x="68.82" y="137.64" width="68.82" height="68.82" fill="#f1f13b"/><g transform="translate(68.82,137.64) scale(3.441) rotate(0)"><path d="M10 0H20L0 20V10L10 0Z" fill="#5e5e17"/><path d="M20 10V20H10L20 10Z" fill="#5e5e17"/></g><rect x="137.64" y="137.64" width="68.82" height="68.82" fill="#7a7a1e"/><g transform="translate(137.64,137.64) scale(3.441) rotate(0)"><path d="M10 0H20L0 20V10L10 0Z" fill="#1e1e07"/><path d="M20 10V20H10L20 10Z" fill="#1e1e07"/></g><rect x="206.45" y="137.64" width="68.82" height="68.82" fill="#dfdf37"/><g transform="translate(206.45,137.64) scale(3.441) rotate(0)"><path d="M10 0H20L0 20V10L10 0Z" fill="#6a6a1a"/><path d="M20 10V20H10L20 10Z" fill="#6a6a1a"/></g><rect x="275.27" y="137.64" width="68.82" height="68.82" fill="#111104"/><g transform="translate(275.27,137.64) scale(3.441) rotate(0)"><path d="M10 0H20L0 20V10L10 0Z" fill="#8f8f23"/><path d="M20 10V20H10L20 10Z" fill="#8f8f23"/></g><rect x="344.09" y="137.64" width="68.82" height="68.82" fill="#d4d434"/><g transform="translate(344.09,137.64) scale(3.441) rotate(0)"><path d="M10 0H20L0 20V10L10 0Z" fill="#454511"/><path d="M20 10V20H10L20 10Z" fill="#454511"/></g><rect x="412.91" y="137.64" width="68.82" height="68.82" fill="#acac2a"/><g transform="translate(412.91,137.64) scale(3.441) rotate(0)"><path d="M10 0H20L0 20V10L10 0Z" fill="#7a7a1e"/><path d="M20 10V20H10L20 10Z" fill="#7a7a1e"/></g><rect x="481.73" y="137.64" width="68.82" height="68.82" fill="#f0f03b"/><g transform="translate(481.73,137.64) scale(3.441) rotate(0)"><path d="M10 0H20L0 20V10L10 0Z" fill="#606017"/><path d="M20 10V20H10L20 10Z" fill="#606017"/></g><rect x="550.55" y="137.64" width="68.82" height="68.82" fill="#0e0e03"/><g transform="translate(550.55,137.64) scale(3.441) rotate(0)"><path d="M10 0H20L0 20V10L10 0Z" fill="#545415"/><path d="M20 10V20H10L20 10Z" fill="#545415"/></g><rect x="619.36" y="137.64" width="68.82" height="68.82" fill="#f5f53c"/><g transform="translate(619.36,137.64) scale(3.441) rotate(0)"><path d="M10 0H20L0 20V10L10 0Z" fill="#ebeb39"/><path d="M20 10V20H10L20 10Z" fill="#ebeb39"/></g><rect x="688.18" y="137.64" width="68.82" height="68.82" fill="#e4e438"/><g transform="translate(688.18,137.64) scale(3.441) rotate(0)"><path d="M10 0H20L0 20V10L10 0Z" fill="#b3b32c"/><path d="M20 10V20H10L20 10Z" fill="#b3b32c"/></g><rect x="757" y="137.64" width="68.82" height="68.82" fill="#0d0d03"/><g transform="translate(757,137.64) scale(3.441) rotate(0)"><path d="M10 0H20L0 20V10L10 0Z" fill="#666619"/><path d="M20 10V20H10L20 10Z" fill="#666619"/></g><rect x="825.82" y="137.64" width="68.82" height="68.82" fill="#a5a528"/><g transform="translate(825.82,137.64) scale(3.441) rotate(0)"><path d="M10 0H20L0 20V10L10 0Z" fill="#c8c831"/><path d="M20 10V20H10L20 10Z" fill="#c8c831"/></g><rect x="894.64" y="137.64" width="68.82" height="68.82" fill="#81811f"/><g transform="translate(894.64,137.64) scale(3.441) rotate(0)"><path d="M10 0H20L0 20V10L10 0Z" fill="#565615"/><path d="M20 10V20H10L20 10Z" fill="#565615"/></g><rect x="963.45" y="137.64" width="68.82" height="68.82" fill="#dddd36"/><g transform="translate(963.45,137.64) scale(3.441) rotate(0)"><path d="M10 0H20L0 20V10L10 0Z" fill="#1f1f08"/><path d="M20 10V20H10L20 10Z" fill="#1f1f08"/></g><rect x="1032.27" y="137.64" width="68.82" height="68.82" fill="#eded3a"/><g transform="translate(1032.27,137.64) scale(3.441) rotate(0)"><path d="M10 0H20L0 20V10L10 0Z" fill="#2a2a0a"/><path d="M20 10V20H10L20 10Z" fill="#2a2a0a"/></g><rect x="1101.09" y="137.64" width="68.82" height="68.82" fill="#dbdb35"/><g transform="translate(1101.09,137.64) scale(3.441) rotate(0)"><path d="M10 0H20L0 20V10L10 0Z" fill="#f6f63c"/><path d="M20 10V20H10L20 10Z" fill="#f6f63c"/></g><rect x="1169.91" y="137.64" width="68.82" height="68.82" fill="#b6b62c"/><g transform="translate(1169.91,137.64) scale(3.441) rotate(0)"><path d="M10 0H20L0 20V10L10 0Z" fill="#5c5c16"/><path d="M20 10V20H10L20 10Z" fill="#5c5c16"/></g><rect x="1238.73" y="137.64" width="68.82" height="68.82" fill="#434310"/><g transform="translate(1238.73,137.64) scale(3.441) rotate(0)"><path d="M10 0H20L0 20V10L10 0Z" fill="#4f4f13"/><path d="M20 10V20H10L20 10Z" fill="#4f4f13"/></g><rect x="0" y="206.45" width="68.82" height="68.82" fill="#b7b72d"/><g transform="translate(0,206.45) scale(3.441) rotate(0)"><path d="M10 0H20L0 20V10L10 0Z" fill="#fefe3e"/><path d="M20 10V20H10L20 10Z" fill="#fefe3e"/></g><rect x="68.82" y="206.45" width="68.82" height="68.82" fill="#32320c"/><g transform="translate(68.82,206.45) scale(3.441) rotate(0)"><path d="M10 0H20L0 20V10L10 0Z" fill="#969625"/><path d="M20 10V20H10L20 10Z" fill="#969625"/></g><rect x="137.64" y="206.45" width="68.82" height="68.82" fill="#acac2a"/><g transform="translate(137.64,206.45) scale(3.441) rotate(0)"><path d="M10 0H20L0 20V10L10 0Z" fill="#949424"/><path d="M20 10V20H10L20 10Z" fill="#949424"/></g><rect x="206.45" y="206.45" width="68.82" height="68.82" fill="#b3b32c"/><g transform="translate(206.45,206.45) scale(3.441) rotate(0)"><path d="M10 0H20L0 20V10L10 0Z" fill="#646418"/><path d="M20 10V20H10L20 10Z" fill="#646418"/></g><rect x="275.27" y="206.45" width="68.82" height="68.82" fill="#0f0f04"/><g transform="translate(275.27,206.45) scale(3.441) rotate(0)"><path d="M10 0H20L0 20V10L10 0Z" fill="#e9e939"/><path d="M20 10V20H10L20 10Z" fill="#e9e939"/></g><rect x="344.09" y="206.45" width="68.82" height="68.82" fill="#8a8a22"/><g transform="translate(344.09,206.45) scale(3.441) rotate(0)"><path d="M10 0H20L0 20V10L10 0Z" fill="#454511"/><path d="M20 10V20H10L20 10Z" fill="#454511"/></g><rect x="412.91" y="206.45" width="68.82" height="68.82" fill="#eded3a"/><g transform="translate(412.91,206.45) scale(3.441) rotate(0)"><path d="M10 0H20L0 20V10L10 0Z" fill="#77771d"/><path d="M20 10V20H10L20 10Z" fill="#77771d"/></g><rect x="481.73" y="206.45" width="68.82" height="68.82" fill="#3e3e0f"/><g transform="translate(481.73,206.45) scale(3.441) rotate(0)"><path d="M10 0H20L0 20V10L10 0Z" fill="#6d6d1b"/><path d="M20 10V20H10L20 10Z" fill="#6d6d1b"/></g><rect x="550.55" y="206.45" width="68.82" height="68.82" fill="#8c8c22"/><g transform="translate(550.55,206.45) scale(3.441) rotate(0)"><path d="M10 0H20L0 20V10L10 0Z" fill="#0b0b03"/><path d="M20 10V20H10L20 10Z" fill="#0b0b03"/></g><rect x="619.36" y="206.45" width="68.82" height="68.82" fill="#2f2f0b"/><g transform="translate(619.36,206.45) scale(3.441) rotate(0)"><path d="M10 0H20L0 20V10L10 0Z" fill="#5d5d17"/><path d="M20 10V20H10L20 10Z" fill="#5d5d17"/></g><rect x="688.18" y="206.45" width="68.82" height="68.82" fill="#545415"/><g transform="translate(688.18,206.45) scale(3.441) rotate(0)"><path d="M10 0H20L0 20V10L10 0Z" fill="#d6d634"/><path d="M20 10V20H10L20 10Z" fill="#d6d634"/></g><rect x="757" y="206.45" width="68.82" height="68.82" fill="#e8e839"/><g transform="translate(757,206.45) scale(3.441) rotate(0)"><path d="M10 0H20L0 20V10L10 0Z" fill="#f0f03b"/><path d="M20 10V20H10L20 10Z" fill="#f0f03b"/></g><rect x="825.82" y="206.45" width="68.82" height="68.82" fill="#909023"/><g transform="translate(825.82,206.45) scale(3.441) rotate(0)"><path d="M10 0H20L0 20V10L10 0Z" fill="#1e1e07"/><path d="M20 10V20H10L20 10Z" fill="#1e1e07"/></g><rect x="894.64" y="206.45" width="68.82" height="68.82" fill="#5f5f17"/><g transform="translate(894.64,206.45) scale(3.441) rotate(0)"><path d="M10 0H20L0 20V10L10 0Z" fill="#939324"/><path d="M20 10V20H10L20 10Z" fill="#939324"/></g><rect x="963.45" y="206.45" width="68.82" height="68.82" fill="#676719"/><g transform="translate(963.45,206.45) scale(3.441) rotate(0)"><path d="M10 0H20L0 20V10L10 0Z" fill="#30300c"/><path d="M20 10V20H10L20 10Z" fill="#30300c"/></g><rect x="1032.27" y="206.45" width="68.82" height="68.82" fill="#585815"/><g transform="translate(1032.27,206.45) scale(3.441) rotate(0)"><path d="M10 0H20L0 20V10L10 0Z" fill="#d7d735"/><path d="M20 10V20H10L20 10Z" fill="#d7d735"/></g><rect x="1101.09" y="206.45" width="68.82" height="68.82" fill="#2b2b0b"/><g transform="translate(1101.09,206.45) scale(3.441) rotate(0)"><path d="M10 0H20L0 20V10L10 0Z" fill="#919123"/><path d="M20 10V20H10L20 10Z" fill="#919123"/></g><rect x="1169.91" y="206.45" width="68.82" height="68.82" fill="#9d9d26"/><g transform="translate(1169.91,206.45) scale(3.441) rotate(0)"><path d="M10 0H20L0 20V10L10 0Z" fill="#3e3e0f"/><path d="M20 10V20H10L20 10Z" fill="#3e3e0f"/></g><rect x="1238.73" y="206.45" width="68.82" height="68.82" fill="#535314"/><g transform="translate(1238.73,206.45) scale(3.441) rotate(0)"><path d="M10 0H20L0 20V10L10 0Z" fill="#7c7c1e"/><path d="M20 10V20H10L20 10Z" fill="#7c7c1e"/></g><rect x="0" y="275.27" width="68.82" height="68.82" fill="#454511"/><g transform="translate(0,275.27) scale(3.441) rotate(0)"><path d="M10 0H20L0 20V10L10 0Z" fill="#dfdf37"/><path d="M20 10V20H10L20 10Z" fill="#dfdf37"/></g><rect x="68.82" y="275.27" width="68.82" height="68.82" fill="#575715"/><g transform="translate(68.82,275.27) scale(3.441) rotate(0)"><path d="M10 0H20L0 20V10L10 0Z" fill="#adad2a"/><path d="M20 10V20H10L20 10Z" fill="#adad2a"/></g><rect x="137.64" y="275.27" width="68.82" height="68.82" fill="#eeee3a"/><g transform="translate(137.64,275.27) scale(3.441) rotate(0)"><path d="M10 0H20L0 20V10L10 0Z" fill="#ebeb39"/><path d="M20 10V20H10L20 10Z" fill="#ebeb39"/></g><rect x="206.45" y="275.27" width="68.82" height="68.82" fill="#0b0b03"/><g transform="translate(206.45,275.27) scale(3.441) rotate(0)"><path d="M10 0H20L0 20V10L10 0Z" fill="#030301"/><path d="M20 10V20H10L20 10Z" fill="#030301"/></g><rect x="275.27" y="275.27" width="68.82" height="68.82" fill="#898921"/><g transform="translate(275.27,275.27) scale(3.441) rotate(0)"><path d="M10 0H20L0 20V10L10 0Z" fill="#030301"/><path d="M20 10V20H10L20 10Z" fill="#030301"/></g><rect x="344.09" y="275.27" width="68.82" height="68.82" fill="#7e7e1f"/><g transform="translate(344.09,275.27) scale(3.441) rotate(0)"><path d="M10 0H20L0 20V10L10 0Z" fill="#999925"/><path d="M20 10V20H10L20 10Z" fill="#999925"/></g><rect x="412.91" y="275.27" width="68.82" height="68.82" fill="#b7b72d"/><g transform="translate(412.91,275.27) scale(3.441) rotate(0)"><path d="M10 0H20L0 20V10L10 0Z" fill="#171706"/><path d="M20 10V20H10L20 10Z" fill="#171706"/></g><rect x="481.73" y="275.27" width="68.82" height="68.82" fill="#2b2b0a"/><g transform="translate(481.73,275.27) scale(3.441) rotate(0)"><path d="M10 0H20L0 20V10L10 0Z" fill="#444411"/><path d="M20 10V20H10L20 10Z" fill="#444411"/></g><rect x="550.55" y="275.27" width="68.82" height="68.82" fill="#80801f"/><g transform="translate(550.55,275.27) scale(3.441) rotate(0)"><path d="M10 0H20L0 20V10L10 0Z" fill="#e8e839"/><path d="M20 10V20H10L20 10Z" fill="#e8e839"/></g><rect x="619.36" y="275.27" width="68.82" height="68.82" fill="#dcdc36"/><g transform="translate(619.36,275.27) scale(3.441) rotate(0)"><path d="M10 0H20L0 20V10L10 0Z" fill="#3e3e0f"/><path d="M20 10V20H10L20 10Z" fill="#3e3e0f"/></g><rect x="688.18" y="275.27" width="68.82" height="68.82" fill="#0d0d03"/><g transform="translate(688.18,275.27) scale(3.441) rotate(0)"><path d="M10 0H20L0 20V10L10 0Z" fill="#252509"/><path d="M20 10V20H10L20 10Z" fill="#252509"/></g><rect x="757" y="275.27" width="68.82" height="68.82" fill="#c7c730"/><g transform="translate(757,275.27) scale(3.441) rotate(0)"><path d="M10 0H20L0 20V10L10 0Z" fill="#484811"/><path d="M20 10V20H10L20 10Z" fill="#484811"/></g><rect x="825.82" y="275.27" width="68.82" height="68.82" fill="#cdcd32"/><g transform="translate(825.82,275.27) scale(3.441) rotate(0)"><path d="M10 0H20L0 20V10L10 0Z" fill="#27270a"/><path d="M20 10V20H10L20 10Z" fill="#27270a"/></g><rect x="894.64" y="275.27" width="68.82" height="68.82" fill="#d6d634"/><g transform="translate(894.64,275.27) scale(3.441) rotate(0)"><path d="M10 0H20L0 20V10L10 0Z" fill="#a4a428"/><path d="M20 10V20H10L20 10Z" fill="#a4a428"/></g><rect x="963.45" y="275.27" width="68.82" height="68.82" fill="#cfcf32"/><g transform="translate(963.45,275.27) scale(3.441) rotate(0)"><path d="M10 0H20L0 20V10L10 0Z" fill="#060601"/><path d="M20 10V20H10L20 10Z" fill="#060601"/></g><rect x="1032.27" y="275.27" width="68.82" height="68.82" fill="#676719"/><g transform="translate(1032.27,275.27) scale(3.441) rotate(0)"><path d="M10 0H20L0 20V10L10 0Z" fill="#b3b32c"/><path d="M20 10V20H10L20 10Z" fill="#b3b32c"/></g><rect x="1101.09" y="275.27" width="68.82" height="68.82" fill="#3f3f0f"/><g transform="translate(1101.09,275.27) scale(3.441) rotate(0)"><path d="M10 0H20L0 20V10L10 0Z" fill="#fbfb3d"/><path d="M20 10V20H10L20 10Z" fill="#fbfb3d"/></g><rect x="1169.91" y="275.27" width="68.82" height="68.82" fill="#2c2c0b"/><g transform="translate(1169.91,275.27) scale(3.441) rotate(0)"><path d="M10 0H20L0 20V10L10 0Z" fill="#aaaa2a"/><path d="M20 10V20H10L20 10Z" fill="#aaaa2a"/></g><rect x="1238.73" y="275.27" width="68.82" height="68.82" fill="#242409"/><g transform="translate(1238.73,275.27) scale(3.441) rotate(0)"><path d="M10 0H20L0 20V10L10 0Z" fill="#c5c530"/><path d="M20 10V20H10L20 10Z" fill="#c5c530"/></g><rect x="0" y="344.09" width="68.82" height="68.82" fill="#4f4f13"/><g transform="translate(0,344.09) scale(3.441) rotate(0)"><path d="M10 0H20L0 20V10L10 0Z" fill="#595916"/><path d="M20 10V20H10L20 10Z" fill="#595916"/></g><rect x="68.82" y="344.09" width="68.82" height="68.82" fill="#7f7f1f"/><g transform="translate(68.82,344.09) scale(3.441) rotate(0)"><path d="M10 0H20L0 20V10L10 0Z" fill="#919123"/><path d="M20 10V20H10L20 10Z" fill="#919123"/></g><rect x="137.64" y="344.09" width="68.82" height="68.82" fill="#9b9b26"/><g transform="translate(137.64,344.09) scale(3.441) rotate(0)"><path d="M10 0H20L0 20V10L10 0Z" fill="#f0f03a"/><path d="M20 10V20H10L20 10Z" fill="#f0f03a"/></g><rect x="206.45" y="344.09" width="68.82" height="68.82" fill="#34340d"/><g transform="translate(206.45,344.09) scale(3.441) rotate(0)"><path d="M10 0H20L0 20V10L10 0Z" fill="#595916"/><path d="M20 10V20H10L20 10Z" fill="#595916"/></g><rect x="275.27" y="344.09" width="68.82" height="68.82" fill="#181806"/><g transform="translate(275.27,344.09) scale(3.441) rotate(0)"><path d="M10 0H20L0 20V10L10 0Z" fill="#a8a829"/><path d="M20 10V20H10L20 10Z" fill="#a8a829"/></g><rect x="344.09" y="344.09" width="68.82" height="68.82" fill="#7a7a1e"/><g transform="translate(344.09,344.09) scale(3.441) rotate(0)"><path d="M10 0H20L0 20V10L10 0Z" fill="#212108"/><path d="M20 10V20H10L20 10Z" fill="#212108"/></g><rect x="412.91" y="344.09" width="68.82" height="68.82" fill="#464611"/><g transform="translate(412.91,344.09) scale(3.441) rotate(0)"><path d="M10 0H20L0 20V10L10 0Z" fill="#434310"/><path d="M20 10V20H10L20 10Z" fill="#434310"/></g><rect x="481.73" y="344.09" width="68.82" height="68.82" fill="#c8c831"/><g transform="translate(481.73,344.09) scale(3.441) rotate(0)"><path d="M10 0H20L0 20V10L10 0Z" fill="#9b9b26"/><path d="M20 10V20H10L20 10Z" fill="#9b9b26"/></g><rect x="550.55" y="344.09" width="68.82" height="68.82" fill="#9f9f27"/><g transform="translate(550.55,344.09) scale(3.441) rotate(0)"><path d="M10 0H20L0 20V10L10 0Z" fill="#32320c"/><path d="M20 10V20H10L20 10Z" fill="#32320c"/></g><rect x="619.36" y="344.09" width="68.82" height="68.82" fill="#686819"/><g transform="translate(619.36,344.09) scale(3.441) rotate(0)"><path d="M10 0H20L0 20V10L10 0Z" fill="#c7c731"/><path d="M20 10V20H10L20 10Z" fill="#c7c731"/></g><rect x="688.18" y="344.09" width="68.82" height="68.82" fill="#b4b42c"/><g transform="translate(688.18,344.09) scale(3.441) rotate(0)"><path d="M10 0H20L0 20V10L10 0Z" fill="#070702"/><path d="M20 10V20H10L20 10Z" fill="#070702"/></g><rect x="757" y="344.09" width="68.82" height="68.82" fill="#909023"/><g transform="translate(757,344.09) scale(3.441) rotate(0)"><path d="M10 0H20L0 20V10L10 0Z" fill="#3f3f0f"/><path d="M20 10V20H10L20 10Z" fill="#3f3f0f"/></g><rect x="825.82" y="344.09" width="68.82" height="68.82" fill="#7c7c1e"/><g transform="translate(825.82,344.09) scale(3.441) rotate(0)"><path d="M10 0H20L0 20V10L10 0Z" fill="#b8b82d"/><path d="M20 10V20H10L20 10Z" fill="#b8b82d"/></g><rect x="894.64" y="344.09" width="68.82" height="68.82" fill="#4b4b12"/><g transform="translate(894.64,344.09) scale(3.441) rotate(0)"><path d="M10 0H20L0 20V10L10 0Z" fill="#f1f13b"/><path d="M20 10V20H10L20 10Z" fill="#f1f13b"/></g><rect x="963.45" y="344.09" width="68.82" height="68.82" fill="#050501"/><g transform="translate(963.45,344.09) scale(3.441) rotate(0)"><path d="M10 0H20L0 20V10L10 0Z" fill="#e6e638"/><path d="M20 10V20H10L20 10Z" fill="#e6e638"/></g><rect x="1032.27" y="344.09" width="68.82" height="68.82" fill="#424210"/><g transform="translate(1032.27,344.09) scale(3.441) rotate(0)"><path d="M10 0H20L0 20V10L10 0Z" fill="#636318"/><path d="M20 10V20H10L20 10Z" fill="#636318"/></g><rect x="1101.09" y="344.09" width="68.82" height="68.82" fill="#000000"/><g transform="translate(1101.09,344.09) scale(3.441) rotate(0)"><path d="M10 0H20L0 20V10L10 0Z" fill="#9e9e26"/><path d="M20 10V20H10L20 10Z" fill="#9e9e26"/></g><rect x="1169.91" y="344.09" width="68.82" height="68.82" fill="#858520"/><g transform="translate(1169.91,344.09) scale(3.441) rotate(0)"><path d="M10 0H20L0 20V10L10 0Z" fill="#acac2a"/><path d="M20 10V20H10L20 10Z" fill="#acac2a"/></g><rect x="1238.73" y="344.09" width="68.82" height="68.82" fill="#636318"/><g transform="translate(1238.73,344.09) scale(3.441) rotate(0)"><path d="M10 0H20L0 20V10L10 0Z" fill="#a4a428"/><path d="M20 10V20H10L20 10Z" fill="#a4a428"/></g><rect x="0" y="412.91" width="68.82" height="68.82" fill="#595916"/><g transform="translate(0,412.91) scale(3.441) rotate(0)"><path d="M10 0H20L0 20V10L10 0Z" fill="#949424"/><path d="M20 10V20H10L20 10Z" fill="#949424"/></g><rect x="68.82" y="412.91" width="68.82" height="68.82" fill="#1b1b06"/><g transform="translate(68.82,412.91) scale(3.441) rotate(0)"><path d="M10 0H20L0 20V10L10 0Z" fill="#0f0f04"/><path d="M20 10V20H10L20 10Z" fill="#0f0f04"/></g><rect x="137.64" y="412.91" width="68.82" height="68.82" fill="#e5e538"/><g transform="translate(137.64,412.91) scale(3.441) rotate(0)"><path d="M10 0H20L0 20V10L10 0Z" fill="#afaf2b"/><path d="M20 10V20H10L20 10Z" fill="#afaf2b"/></g><rect x="206.45" y="412.91" width="68.82" height="68.82" fill="#0b0b03"/><g transform="translate(206.45,412.91) scale(3.441) rotate(0)"><path d="M10 0H20L0 20V10L10 0Z" fill="#545414"/><path d="M20 10V20H10L20 10Z" fill="#545414"/></g><rect x="275.27" y="412.91" width="68.82" height="68.82" fill="#9b9b26"/><g transform="translate(275.27,412.91) scale(3.441) rotate(0)"><path d="M10 0H20L0 20V10L10 0Z" fill="#6a6a1a"/><path d="M20 10V20H10L20 10Z" fill="#6a6a1a"/></g><rect x="344.09" y="412.91" width="68.82" height="68.82" fill="#79791e"/><g transform="translate(344.09,412.91) scale(3.441) rotate(0)"><path d="M10 0H20L0 20V10L10 0Z" fill="#cbcb31"/><path d="M20 10V20H10L20 10Z" fill="#cbcb31"/></g><rect x="412.91" y="412.91" width="68.82" height="68.82" fill="#27270a"/><g transform="translate(412.91,412.91) scale(3.441) rotate(0)"><path d="M10 0H20L0 20V10L10 0Z" fill="#858521"/><path d="M20 10V20H10L20 10Z" fill="#858521"/></g><rect x="481.73" y="412.91" width="68.82" height="68.82" fill="#f5f53c"/><g transform="translate(481.73,412.91) scale(3.441) rotate(0)"><path d="M10 0H20L0 20V10L10 0Z" fill="#c6c630"/><path d="M20 10V20H10L20 10Z" fill="#c6c630"/></g><rect x="550.55" y="412.91" width="68.82" height="68.82" fill="#454511"/><g transform="translate(550.55,412.91) scale(3.441) rotate(0)"><path d="M10 0H20L0 20V10L10 0Z" fill="#efef3a"/><path d="M20 10V20H10L20 10Z" fill="#efef3a"/></g><rect x="619.36" y="412.91" width="68.82" height="68.82" fill="#cbcb32"/><g transform="translate(619.36,412.91) scale(3.441) rotate(0)"><path d="M10 0H20L0 20V10L10 0Z" fill="#838320"/><path d="M20 10V20H10L20 10Z" fill="#838320"/></g><rect x="688.18" y="412.91" width="68.82" height="68.82" fill="#484811"/><g transform="translate(688.18,412.91) scale(3.441) rotate(0)"><path d="M10 0H20L0 20V10L10 0Z" fill="#cfcf33"/><path d="M20 10V20H10L20 10Z" fill="#cfcf33"/></g><rect x="757" y="412.91" width="68.82" height="68.82" fill="#191906"/><g transform="translate(757,412.91) scale(3.441) rotate(0)"><path d="M10 0H20L0 20V10L10 0Z" fill="#494912"/><path d="M20 10V20H10L20 10Z" fill="#494912"/></g><rect x="825.82" y="412.91" width="68.82" height="68.82" fill="#444411"/><g transform="translate(825.82,412.91) scale(3.441) rotate(0)"><path d="M10 0H20L0 20V10L10 0Z" fill="#050501"/><path d="M20 10V20H10L20 10Z" fill="#050501"/></g><rect x="894.64" y="412.91" width="68.82" height="68.82" fill="#f5f53c"/><g transform="translate(894.64,412.91) scale(3.441) rotate(0)"><path d="M10 0H20L0 20V10L10 0Z" fill="#6c6c1a"/><path d="M20 10V20H10L20 10Z" fill="#6c6c1a"/></g><rect x="963.45" y="412.91" width="68.82" height="68.82" fill="#555515"/><g transform="translate(963.45,412.91) scale(3.441) rotate(0)"><path d="M10 0H20L0 20V10L10 0Z" fill="#fbfb3d"/><path d="M20 10V20H10L20 10Z" fill="#fbfb3d"/></g><rect x="1032.27" y="412.91" width="68.82" height="68.82" fill="#e0e037"/><g transform="translate(1032.27,412.91) scale(3.441) rotate(0)"><path d="M10 0H20L0 20V10L10 0Z" fill="#4e4e13"/><path d="M20 10V20H10L20 10Z" fill="#4e4e13"/></g><rect x="1101.09" y="412.91" width="68.82" height="68.82" fill="#a4a428"/><g transform="translate(1101.09,412.91) scale(3.441) rotate(0)"><path d="M10 0H20L0 20V10L10 0Z" fill="#f2f23b"/><path d="M20 10V20H10L20 10Z" fill="#f2f23b"/></g><rect x="1169.91" y="412.91" width="68.82" height="68.82" fill="#f7f73c"/><g transform="translate(1169.91,412.91) scale(3.441) rotate(0)"><path d="M10 0H20L0 20V10L10 0Z" fill="#f9f93d"/><path d="M20 10V20H10L20 10Z" fill="#f9f93d"/></g><rect x="1238.73" y="412.91" width="68.82" height="68.82" fill="#8a8a22"/><g transform="translate(1238.73,412.91) scale(3.441) rotate(0)"><path d="M10 0H20L0 20V10L10 0Z" fill="#34340d"/><path d="M20 10V20H10L20 10Z" fill="#34340d"/></g><rect x="0" y="481.73" width="68.82" height="68.82" fill="#2d2d0b"/><g transform="translate(0,481.73) scale(3.441) rotate(0)"><path d="M10 0H20L0 20V10L10 0Z" fill="#8f8f23"/><path d="M20 10V20H10L20 10Z" fill="#8f8f23"/></g><rect x="68.82" y="481.73" width="68.82" height="68.82" fill="#656519"/><g transform="translate(68.82,481.73) scale(3.441) rotate(0)"><path d="M10 0H20L0 20V10L10 0Z" fill="#838320"/><path d="M20 10V20H10L20 10Z" fill="#838320"/></g><rect x="137.64" y="481.73" width="68.82" height="68.82" fill="#9d9d26"/><g transform="translate(137.64,481.73) scale(3.441) rotate(0)"><path d="M10 0H20L0 20V10L10 0Z" fill="#919123"/><path d="M20 10V20H10L20 10Z" fill="#919123"/></g><rect x="206.45" y="481.73" width="68.82" height="68.82" fill="#a3a328"/><g transform="translate(206.45,481.73) scale(3.441) rotate(0)"><path d="M10 0H20L0 20V10L10 0Z" fill="#a3a328"/><path d="M20 10V20H10L20 10Z" fill="#a3a328"/></g><rect x="275.27" y="481.73" width="68.82" height="68.82" fill="#060601"/><g transform="translate(275.27,481.73) scale(3.441) rotate(0)"><path d="M10 0H20L0 20V10L10 0Z" fill="#5c5c17"/><path d="M20 10V20H10L20 10Z" fill="#5c5c17"/></g><rect x="344.09" y="481.73" width="68.82" height="68.82" fill="#5a5a16"/><g transform="translate(344.09,481.73) scale(3.441) rotate(0)"><path d="M10 0H20L0 20V10L10 0Z" fill="#27270a"/><path d="M20 10V20H10L20 10Z" fill="#27270a"/></g><rect x="412.91" y="481.73" width="68.82" height="68.82" fill="#aeae2a"/><g transform="translate(412.91,481.73) scale(3.441) rotate(0)"><path d="M10 0H20L0 20V10L10 0Z" fill="#eeee3a"/><path d="M20 10V20H10L20 10Z" fill="#eeee3a"/></g><rect x="481.73" y="481.73" width="68.82" height="68.82" fill="#7b7b1e"/><g transform="translate(481.73,481.73) scale(3.441) rotate(0)"><path d="M10 0H20L0 20V10L10 0Z" fill="#030301"/><path d="M20 10V20H10L20 10Z" fill="#030301"/></g><rect x="550.55" y="481.73" width="68.82" height="68.82" fill="#161605"/><g transform="translate(550.55,481.73) scale(3.441) rotate(0)"><path d="M10 0H20L0 20V10L10 0Z" fill="#c9c931"/><path d="M20 10V20H10L20 10Z" fill="#c9c931"/></g><rect x="619.36" y="481.73" width="68.82" height="68.82" fill="#0f0f04"/><g transform="translate(619.36,481.73) scale(3.441) rotate(0)"><path d="M10 0H20L0 20V10L10 0Z" fill="#b2b22b"/><path d="M20 10V20H10L20 10Z" fill="#b2b22b"/></g><rect x="688.18" y="481.73" width="68.82" height="68.82" fill="#4c4c13"/><g transform="translate(688.18,481.73) scale(3.441) rotate(0)"><path d="M10 0H20L0 20V10L10 0Z" fill="#575715"/><path d="M20 10V20H10L20 10Z" fill="#575715"/></g><rect x="757" y="481.73" width="68.82" height="68.82" fill="#dbdb35"/><g transform="translate(757,481.73) scale(3.441) rotate(0)"><path d="M10 0H20L0 20V10L10 0Z" fill="#fdfd3e"/><path d="M20 10V20H10L20 10Z" fill="#fdfd3e"/></g><rect x="825.82" y="481.73" width="68.82" height="68.82" fill="#72721c"/><g transform="translate(825.82,481.73) scale(3.441) rotate(0)"><path d="M10 0H20L0 20V10L10 0Z" fill="#c6c630"/><path d="M20 10V20H10L20 10Z" fill="#c6c630"/></g><rect x="894.64" y="481.73" width="68.82" height="68.82" fill="#494912"/><g transform="translate(894.64,481.73) scale(3.441) rotate(0)"><path d="M10 0H20L0 20V10L10 0Z" fill="#949424"/><path d="M20 10V20H10L20 10Z" fill="#949424"/></g><rect x="963.45" y="481.73" width="68.82" height="68.82" fill="#caca31"/><g transform="translate(963.45,481.73) scale(3.441) rotate(0)"><path d="M10 0H20L0 20V10L10 0Z" fill="#4c4c12"/><path d="M20 10V20H10L20 10Z" fill="#4c4c12"/></g><rect x="1032.27" y="481.73" width="68.82" height="68.82" fill="#474711"/><g transform="translate(1032.27,481.73) scale(3.441) rotate(0)"><path d="M10 0H20L0 20V10L10 0Z" fill="#e7e738"/><path d="M20 10V20H10L20 10Z" fill="#e7e738"/></g><rect x="1101.09" y="481.73" width="68.82" height="68.82" fill="#28280a"/><g transform="translate(1101.09,481.73) scale(3.441) rotate(0)"><path d="M10 0H20L0 20V10L10 0Z" fill="#c4c430"/><path d="M20 10V20H10L20 10Z" fill="#c4c430"/></g><rect x="1169.91" y="481.73" width="68.82" height="68.82" fill="#626218"/><g transform="translate(1169.91,481.73) scale(3.441) rotate(0)"><path d="M10 0H20L0 20V10L10 0Z" fill="#b7b72d"/><path d="M20 10V20H10L20 10Z" fill="#b7b72d"/></g><rect x="1238.73" y="481.73" width="68.82" height="68.82" fill="#111104"/><g transform="translate(1238.73,481.73) scale(3.441) rotate(0)"><path d="M10 0H20L0 20V10L10 0Z" fill="#646418"/><path d="M20 10V20H10L20 10Z" fill="#646418"/></g><rect x="0" y="550.55" width="68.82" height="68.82" fill="#77771d"/><g transform="translate(0,550.55) scale(3.441) rotate(0)"><path d="M10 0H20L0 20V10L10 0Z" fill="#d5d534"/><path d="M20 10V20H10L20 10Z" fill="#d5d534"/></g><rect x="68.82" y="550.55" width="68.82" height="68.82" fill="#dbdb35"/><g transform="translate(68.82,550.55) scale(3.441) rotate(0)"><path d="M10 0H20L0 20V10L10 0Z" fill="#e4e438"/><path d="M20 10V20H10L20 10Z" fill="#e4e438"/></g><rect x="137.64" y="550.55" width="68.82" height="68.82" fill="#bdbd2e"/><g transform="translate(137.64,550.55) scale(3.441) rotate(0)"><path d="M10 0H20L0 20V10L10 0Z" fill="#3d3d0f"/><path d="M20 10V20H10L20 10Z" fill="#3d3d0f"/></g><rect x="206.45" y="550.55" width="68.82" height="68.82" fill="#d0d033"/><g transform="translate(206.45,550.55) scale(3.441) rotate(0)"><path d="M10 0H20L0 20V10L10 0Z" fill="#5b5b16"/><path d="M20 10V20H10L20 10Z" fill="#5b5b16"/></g><rect x="275.27" y="550.55" width="68.82" height="68.82" fill="#2e2e0b"/><g transform="translate(275.27,550.55) scale(3.441) rotate(0)"><path d="M10 0H20L0 20V10L10 0Z" fill="#a3a328"/><path d="M20 10V20H10L20 10Z" fill="#a3a328"/></g><rect x="344.09" y="550.55" width="68.82" height="68.82" fill="#a4a428"/><g transform="translate(344.09,550.55) scale(3.441) rotate(0)"><path d="M10 0H20L0 20V10L10 0Z" fill="#272709"/><path d="M20 10V20H10L20 10Z" fill="#272709"/></g><rect x="412.91" y="550.55" width="68.82" height="68.82" fill="#c3c330"/><g transform="translate(412.91,550.55) scale(3.441) rotate(0)"><path d="M10 0H20L0 20V10L10 0Z" fill="#3b3b0e"/><path d="M20 10V20H10L20 10Z" fill="#3b3b0e"/></g><rect x="481.73" y="550.55" width="68.82" height="68.82" fill="#eeee3a"/><g transform="translate(481.73,550.55) scale(3.441) rotate(0)"><path d="M10 0H20L0 20V10L10 0Z" fill="#a5a528"/><path d="M20 10V20H10L20 10Z" fill="#a5a528"/></g><rect x="550.55" y="550.55" width="68.82" height="68.82" fill="#e3e337"/><g transform="translate(550.55,550.55) scale(3.441) rotate(0)"><path d="M10 0H20L0 20V10L10 0Z" fill="#fafa3d"/><path d="M20 10V20H10L20 10Z" fill="#fafa3d"/></g><rect x="619.36" y="550.55" width="68.82" height="68.82" fill="#1a1a06"/><g transform="translate(619.36,550.55) scale(3.441) rotate(0)"><path d="M10 0H20L0 20V10L10 0Z" fill="#424210"/><path d="M20 10V20H10L20 10Z" fill="#424210"/></g><rect x="688.18" y="550.55" width="68.82" height="68.82" fill="#f5f53c"/><g transform="translate(688.18,550.55) scale(3.441) rotate(0)"><path d="M10 0H20L0 20V10L10 0Z" fill="#090902"/><path d="M20 10V20H10L20 10Z" fill="#090902"/></g><rect x="757" y="550.55" width="68.82" height="68.82" fill="#e7e738"/><g transform="translate(757,550.55) scale(3.441) rotate(0)"><path d="M10 0H20L0 20V10L10 0Z" fill="#bfbf2f"/><path d="M20 10V20H10L20 10Z" fill="#bfbf2f"/></g><rect x="825.82" y="550.55" width="68.82" height="68.82" fill="#c5c530"/><g transform="translate(825.82,550.55) scale(3.441) rotate(0)"><path d="M10 0H20L0 20V10L10 0Z" fill="#f4f43b"/><path d="M20 10V20H10L20 10Z" fill="#f4f43b"/></g><rect x="894.64" y="550.55" width="68.82" height="68.82" fill="#a8a829"/><g transform="translate(894.64,550.55) scale(3.441) rotate(0)"><path d="M10 0H20L0 20V10L10 0Z" fill="#aaaa29"/><path d="M20 10V20H10L20 10Z" fill="#aaaa29"/></g><rect x="963.45" y="550.55" width="68.82" height="68.82" fill="#868621"/><g transform="translate(963.45,550.55) scale(3.441) rotate(0)"><path d="M10 0H20L0 20V10L10 0Z" fill="#70701b"/><path d="M20 10V20H10L20 10Z" fill="#70701b"/></g><rect x="1032.27" y="550.55" width="68.82" height="68.82" fill="#434310"/><g transform="translate(1032.27,550.55) scale(3.441) rotate(0)"><path d="M10 0H20L0 20V10L10 0Z" fill="#b1b12b"/><path d="M20 10V20H10L20 10Z" fill="#b1b12b"/></g><rect x="1101.09" y="550.55" width="68.82" height="68.82" fill="#aaaa29"/><g transform="translate(1101.09,550.55) scale(3.441) rotate(0)"><path d="M10 0H20L0 20V10L10 0Z" fill="#d2d233"/><path d="M20 10V20H10L20 10Z" fill="#d2d233"/></g><rect x="1169.91" y="550.55" width="68.82" height="68.82" fill="#999925"/><g transform="translate(1169.91,550.55) scale(3.441) rotate(0)"><path d="M10 0H20L0 20V10L10 0Z" fill="#939324"/><path d="M20 10V20H10L20 10Z" fill="#939324"/></g><rect x="1238.73" y="550.55" width="68.82" height="68.82" fill="#39390e"/><g transform="translate(1238.73,550.55) scale(3.441) rotate(0)"><path d="M10 0H20L0 20V10L10 0Z" fill="#020200"/><path d="M20 10V20H10L20 10Z" fill="#020200"/></g><rect x="0" y="619.36" width="68.82" height="68.82" fill="#9e9e27"/><g transform="translate(0,619.36) scale(3.441) rotate(0)"><path d="M10 0H20L0 20V10L10 0Z" fill="#a2a228"/><path d="M20 10V20H10L20 10Z" fill="#a2a228"/></g><rect x="68.82" y="619.36" width="68.82" height="68.82" fill="#eded3a"/><g transform="translate(68.82,619.36) scale(3.441) rotate(0)"><path d="M10 0H20L0 20V10L10 0Z" fill="#6a6a1a"/><path d="M20 10V20H10L20 10Z" fill="#6a6a1a"/></g><rect x="137.64" y="619.36" width="68.82" height="68.82" fill="#7b7b1e"/><g transform="translate(137.64,619.36) scale(3.441) rotate(0)"><path d="M10 0H20L0 20V10L10 0Z" fill="#bdbd2e"/><path d="M20 10V20H10L20 10Z" fill="#bdbd2e"/></g><rect x="206.45" y="619.36" width="68.82" height="68.82" fill="#989825"/><g transform="translate(206.45,619.36) scale(3.441) rotate(0)"><path d="M10 0H20L0 20V10L10 0Z" fill="#d6d634"/><path d="M20 10V20H10L20 10Z" fill="#d6d634"/></g><rect x="275.27" y="619.36" width="68.82" height="68.82" fill="#9a9a26"/><g transform="translate(275.27,619.36) scale(3.441) rotate(0)"><path d="M10 0H20L0 20V10L10 0Z" fill="#cccc32"/><path d="M20 10V20H10L20 10Z" fill="#cccc32"/></g><rect x="344.09" y="619.36" width="68.82" height="68.82" fill="#bebe2e"/><g transform="translate(344.09,619.36) scale(3.441) rotate(0)"><path d="M10 0H20L0 20V10L10 0Z" fill="#34340d"/><path d="M20 10V20H10L20 10Z" fill="#34340d"/></g><rect x="412.91" y="619.36" width="68.82" height="68.82" fill="#8f8f23"/><g transform="translate(412.91,619.36) scale(3.441) rotate(0)"><path d="M10 0H20L0 20V10L10 0Z" fill="#d9d935"/><path d="M20 10V20H10L20 10Z" fill="#d9d935"/></g><rect x="481.73" y="619.36" width="68.82" height="68.82" fill="#6f6f1b"/><g transform="translate(481.73,619.36) scale(3.441) rotate(0)"><path d="M10 0H20L0 20V10L10 0Z" fill="#6a6a1a"/><path d="M20 10V20H10L20 10Z" fill="#6a6a1a"/></g><rect x="550.55" y="619.36" width="68.82" height="68.82" fill="#252509"/><g transform="translate(550.55,619.36) scale(3.441) rotate(0)"><path d="M10 0H20L0 20V10L10 0Z" fill="#101004"/><path d="M20 10V20H10L20 10Z" fill="#101004"/></g><rect x="619.36" y="619.36" width="68.82" height="68.82" fill="#a2a228"/><g transform="translate(619.36,619.36) scale(3.441) rotate(0)"><path d="M10 0H20L0 20V10L10 0Z" fill="#141405"/><path d="M20 10V20H10L20 10Z" fill="#141405"/></g><rect x="688.18" y="619.36" width="68.82" height="68.82" fill="#888821"/><g transform="translate(688.18,619.36) scale(3.441) rotate(0)"><path d="M10 0H20L0 20V10L10 0Z" fill="#f0f03b"/><path d="M20 10V20H10L20 10Z" fill="#f0f03b"/></g><rect x="757" y="619.36" width="68.82" height="68.82" fill="#c7c731"/><g transform="translate(757,619.36) scale(3.441) rotate(0)"><path d="M10 0H20L0 20V10L10 0Z" fill="#a9a929"/><path d="M20 10V20H10L20 10Z" fill="#a9a929"/></g><rect x="825.82" y="619.36" width="68.82" height="68.82" fill="#71711c"/><g transform="translate(825.82,619.36) scale(3.441) rotate(0)"><path d="M10 0H20L0 20V10L10 0Z" fill="#38380e"/><path d="M20 10V20H10L20 10Z" fill="#38380e"/></g><rect x="894.64" y="619.36" width="68.82" height="68.82" fill="#404010"/><g transform="translate(894.64,619.36) scale(3.441) rotate(0)"><path d="M10 0H20L0 20V10L10 0Z" fill="#1f1f08"/><path d="M20 10V20H10L20 10Z" fill="#1f1f08"/></g><rect x="963.45" y="619.36" width="68.82" height="68.82" fill="#bdbd2e"/><g transform="translate(963.45,619.36) scale(3.441) rotate(0)"><path d="M10 0H20L0 20V10L10 0Z" fill="#7e7e1f"/><path d="M20 10V20H10L20 10Z" fill="#7e7e1f"/></g><rect x="1032.27" y="619.36" width="68.82" height="68.82" fill="#39390e"/><g transform="translate(1032.27,619.36) scale(3.441) rotate(0)"><path d="M10 0H20L0 20V10L10 0Z" fill="#fdfd3e"/><path d="M20 10V20H10L20 10Z" fill="#fdfd3e"/></g><rect x="1101.09" y="619.36" width="68.82" height="68.82" fill="#77771d"/><g transform="translate(1101.09,619.36) scale(3.441) rotate(0)"><path d="M10 0H20L0 20V10L10 0Z" fill="#70701b"/><path d="M20 10V20H10L20 10Z" fill="#70701b"/></g><rect x="1169.91" y="619.36" width="68.82" height="68.82" fill="#32320c"/><g transform="translate(1169.91,619.36) scale(3.441) rotate(0)"><path d="M10 0H20L0 20V10L10 0Z" fill="#515114"/><path d="M20 10V20H10L20 10Z" fill="#515114"/></g><rect x="1238.73" y="619.36" width="68.82" height="68.82" fill="#949424"/><g transform="translate(1238.73,619.36) scale(3.441) rotate(0)"><path d="M10 0H20L0 20V10L10 0Z" fill="#3c3c0f"/><path d="M20 10V20H10L20 10Z" fill="#3c3c0f"/></g><rect x="0" y="688.18" width="68.82" height="68.82" fill="#f7f73c"/><g transform="translate(0,688.18) scale(3.441) rotate(0)"><path d="M10 0H20L0 20V10L10 0Z" fill="#b9b92d"/><path d="M20 10V20H10L20 10Z" fill="#b9b92d"/></g><rect x="68.82" y="688.18" width="68.82" height="68.82" fill="#101004"/><g transform="translate(68.82,688.18) scale(3.441) rotate(0)"><path d="M10 0H20L0 20V10L10 0Z" fill="#a5a528"/><path d="M20 10V20H10L20 10Z" fill="#a5a528"/></g><rect x="137.64" y="688.18" width="68.82" height="68.82" fill="#909023"/><g transform="translate(137.64,688.18) scale(3.441) rotate(0)"><path d="M10 0H20L0 20V10L10 0Z" fill="#f0f03b"/><path d="M20 10V20H10L20 10Z" fill="#f0f03b"/></g><rect x="206.45" y="688.18" width="68.82" height="68.82" fill="#404010"/><g transform="translate(206.45,688.18) scale(3.441) rotate(0)"><path d="M10 0H20L0 20V10L10 0Z" fill="#040401"/><path d="M20 10V20H10L20 10Z" fill="#040401"/></g><rect x="275.27" y="688.18" width="68.82" height="68.82" fill="#131305"/><g transform="translate(275.27,688.18) scale(3.441) rotate(0)"><path d="M10 0H20L0 20V10L10 0Z" fill="#999925"/><path d="M20 10V20H10L20 10Z" fill="#999925"/></g><rect x="344.09" y="688.18" width="68.82" height="68.82" fill="#0c0c03"/><g transform="translate(344.09,688.18) scale(3.441) rotate(0)"><path d="M10 0H20L0 20V10L10 0Z" fill="#e0e037"/><path d="M20 10V20H10L20 10Z" fill="#e0e037"/></g><rect x="412.91" y="688.18" width="68.82" height="68.82" fill="#cccc32"/><g transform="translate(412.91,688.18) scale(3.441) rotate(0)"><path d="M10 0H20L0 20V10L10 0Z" fill="#484812"/><path d="M20 10V20H10L20 10Z" fill="#484812"/></g><rect x="481.73" y="688.18" width="68.82" height="68.82" fill="#bbbb2e"/><g transform="translate(481.73,688.18) scale(3.441) rotate(0)"><path d="M10 0H20L0 20V10L10 0Z" fill="#444411"/><path d="M20 10V20H10L20 10Z" fill="#444411"/></g><rect x="550.55" y="688.18" width="68.82" height="68.82" fill="#cfcf33"/><g transform="translate(550.55,688.18) scale(3.441) rotate(0)"><path d="M10 0H20L0 20V10L10 0Z" fill="#e6e638"/><path d="M20 10V20H10L20 10Z" fill="#e6e638"/></g><rect x="619.36" y="688.18" width="68.82" height="68.82" fill="#2a2a0a"/><g transform="translate(619.36,688.18) scale(3.441) rotate(0)"><path d="M10 0H20L0 20V10L10 0Z" fill="#f5f53c"/><path d="M20 10V20H10L20 10Z" fill="#f5f53c"/></g><rect x="688.18" y="688.18" width="68.82" height="68.82" fill="#0d0d03"/><g transform="translate(688.18,688.18) scale(3.441) rotate(0)"><path d="M10 0H20L0 20V10L10 0Z" fill="#fbfb3d"/><path d="M20 10V20H10L20 10Z" fill="#fbfb3d"/></g><rect x="757" y="688.18" width="68.82" height="68.82" fill="#acac2a"/><g transform="translate(757,688.18) scale(3.441) rotate(0)"><path d="M10 0H20L0 20V10L10 0Z" fill="#e4e438"/><path d="M20 10V20H10L20 10Z" fill="#e4e438"/></g><rect x="825.82" y="688.18" width="68.82" height="68.82" fill="#f4f43c"/><g transform="translate(825.82,688.18) scale(3.441) rotate(0)"><path d="M10 0H20L0 20V10L10 0Z" fill="#232309"/><path d="M20 10V20H10L20 10Z" fill="#232309"/></g><rect x="894.64" y="688.18" width="68.82" height="68.82" fill="#595916"/><g transform="translate(894.64,688.18) scale(3.441) rotate(0)"><path d="M10 0H20L0 20V10L10 0Z" fill="#78781d"/><path d="M20 10V20H10L20 10Z" fill="#78781d"/></g><rect x="963.45" y="688.18" width="68.82" height="68.82" fill="#75751d"/><g transform="translate(963.45,688.18) scale(3.441) rotate(0)"><path d="M10 0H20L0 20V10L10 0Z" fill="#919123"/><path d="M20 10V20H10L20 10Z" fill="#919123"/></g><rect x="1032.27" y="688.18" width="68.82" height="68.82" fill="#79791d"/><g transform="translate(1032.27,688.18) scale(3.441) rotate(0)"><path d="M10 0H20L0 20V10L10 0Z" fill="#74741c"/><path d="M20 10V20H10L20 10Z" fill="#74741c"/></g><rect x="1101.09" y="688.18" width="68.82" height="68.82" fill="#4d4d13"/><g transform="translate(1101.09,688.18) scale(3.441) rotate(0)"><path d="M10 0H20L0 20V10L10 0Z" fill="#020201"/><path d="M20 10V20H10L20 10Z" fill="#020201"/></g><rect x="1169.91" y="688.18" width="68.82" height="68.82" fill="#080802"/><g transform="translate(1169.91,688.18) scale(3.441) rotate(0)"><path d="M10 0H20L0 20V10L10 0Z" fill="#070702"/><path d="M20 10V20H10L20 10Z" fill="#070702"/></g><rect x="1238.73" y="688.18" width="68.82" height="68.82" fill="#fcfc3e"/><g transform="translate(1238.73,688.18) scale(3.441) rotate(0)"><path d="M10 0H20L0 20V10L10 0Z" fill="#c3c330"/><path d="M20 10V20H10L20 10Z" fill="#c3c330"/></g></g></svg>